# xmcd
#
# Track frame offsets:
#   150
#   22880
#   41970
#   66360
#   89795
#   106752
#   123537
#   155017
#   171705
#   190170
#   219272
#   232860
#
# Disc length: 3472 seconds
#
# Revision: 0
# Processed by: cddbd v1.4PL0 Copyright (c) Steve Scherf et al.
# Submitted via: uFREEDB 1.6.0
#
DISCID=a90d8e0c
DTITLE=Eric Bell Band - Irish Boy
DYEAR=1900
DGENRE=Blues
TTITLE0=Days of Innocence
TTITLE1=2 Ships
TTITLE2=Ballad By The Irish Sea
TTITLE3=Just To Get By
TTITLE4=Sweet Mystery
TTITLE5=You Smiled
TTITLE6=Irish Boy
TTITLE7=Priest Of Love
TTITLE8=Stnading In The Middle
TTITLE9=You Were The One
TTITLE10=Wrong Side Of Town
TTITLE11=Newcastle Bay
EXTD=
EXTT0=
EXTT1=
EXTT2=
EXTT3=
EXTT4=
EXTT5=
EXTT6=
EXTT7=
EXTT8=
EXTT9=
EXTT10=
EXTT11=
PLAYORDER=
